<?xml version="1.0" encoding="UTF-8"?>
<svg xmlns="http://www.w3.org/2000/svg" xmlns:xlink="http://www.w3.org/1999/xlink" viewBox="0 0 48.96 47.76">
  <defs>
    <style>
      .cls-1 {
        fill: #3a3c3f;
      }

      .cls-2, .cls-3 {
        fill: #008ed0;
      }

      .cls-4 {
        fill: url(#linear-gradient-2);
      }

      .cls-5 {
        fill: #dedfe0;
      }

      .cls-5, .cls-6, .cls-3 {
        mix-blend-mode: multiply;
      }

      .cls-7, .cls-8 {
        fill: #fff;
      }

      .cls-9 {
        fill: #c9e9eb;
        opacity: .7;
      }

      .cls-9, .cls-8, .cls-10, .cls-11 {
        mix-blend-mode: screen;
      }

      .cls-12 {
        fill: #ecb020;
      }

      .cls-13 {
        fill: #626467;
      }

      .cls-14 {
        fill: url(#radial-gradient);
      }

      .cls-15 {
        fill: url(#radial-gradient-3);
      }

      .cls-16 {
        fill: url(#linear-gradient-3);
      }

      .cls-17 {
        isolation: isolate;
      }

      .cls-18 {
        fill: url(#radial-gradient-2);
      }

      .cls-6 {
        fill: #b3b5b8;
        opacity: .9;
      }

      .cls-19 {
        fill: #f3e235;
        opacity: .6;
      }

      .cls-20 {
        fill: #c2c4c6;
      }

      .cls-21 {
        fill: #ff0026;
      }

      .cls-11 {
        fill: #eac076;
      }

      .cls-22 {
        fill: #ed1c24;
      }

      .cls-23 {
        fill: #083879;
      }

      .cls-24 {
        fill: url(#linear-gradient);
      }

      .cls-25 {
        fill: #fff2bb;
        opacity: .5;
      }
    </style>
    <linearGradient id="linear-gradient" x1="20.41" y1=".66" x2="21.49" y2="9.71" gradientTransform="translate(14.04 9.46) rotate(45)" gradientUnits="userSpaceOnUse">
      <stop offset=".46" stop-color="#e5e0df"/>
      <stop offset="1" stop-color="#8ca99c"/>
    </linearGradient>
    <linearGradient id="linear-gradient-2" x1="15.06" y1=".66" x2="16.15" y2="9.71" xlink:href="#linear-gradient"/>
    <linearGradient id="linear-gradient-3" x1="6.51" y1="-24.65" x2="29.4" y2="-24.65" xlink:href="#linear-gradient"/>
    <radialGradient id="radial-gradient" cx="16.83" cy="-13.34" fx="16.83" fy="-13.34" r="3.96" gradientTransform="translate(14.04 9.46) rotate(45)" gradientUnits="userSpaceOnUse">
      <stop offset=".15" stop-color="#21687e"/>
      <stop offset=".49" stop-color="#023f5f"/>
      <stop offset=".98" stop-color="#000"/>
    </radialGradient>
    <radialGradient id="radial-gradient-2" cx="15.68" cy="-13.34" fx="15.68" fy="-13.34" r="3.75" gradientTransform="translate(14.04 9.46) rotate(45)" gradientUnits="userSpaceOnUse">
      <stop offset=".29" stop-color="#fff"/>
      <stop offset=".69" stop-color="#6b6b6b"/>
      <stop offset="1" stop-color="#000"/>
    </radialGradient>
    <radialGradient id="radial-gradient-3" cx="15.68" cy="-13.34" fx="15.68" fy="-13.34" r="3.75" xlink:href="#radial-gradient-2"/>
  </defs>
  <g class="cls-17">
    <g id="Layer_2" data-name="Layer 2">
      <g id="Layer_1-2" data-name="Layer 1">
        <path class="cls-22" d="M0,47.76c.18-.13.34-.28.51-.42.32-.26.68-.49,1-.73.55-.42,3.28-2.58,4.09-3.24,1.05-.85,2.13-1.66,3.2-2.5.46-.36,2.59-1.95,2.57-1.92-.59.77-1.42,1.34-2.11,2.03.11-.07.21-.14.32-.21,2.24-1.63,4.24-3.57,6.44-5.26.04-.03-.88.96-1.34,1.42.43-.32.87-.65,1.27-.99.39-.34,1.27-.97,1.24-.94-.75.66-1.5,1.32-2.21,2.01.69-.5,1.38-1.01,2.07-1.53,1.28-.97,2.6-1.89,3.89-2.86,1.04-.79,2.13-1.65,2.94-2.65.82-1.01,1.17-2.1.98-3.04-.53-2.5-3.86-3.67-6.76-1.83-.95.6-2.72,2.16-3.46,3-.63.71-2.01,2.55-2.59,3.29-.23.29-.46.58-.69.88-.69.99-1.41,1.97-2,2.98.84-.92,2.49-2.85,2.46-2.81-.27.45-.61.88-.95,1.3-.38.48-.73.97-1.09,1.46-.33.46-.66.92-1.02,1.37-.32.4-.65.8-.93,1.22.99-.93,3.52-3.48,3.49-3.44-.18.21-.37.43-.56.64-.65.74-1.31,1.47-1.95,2.22-.8.94-1.56,1.91-2.35,2.86-1.19,1.42-2.4,2.83-3.56,4.27,1.3-1.31,3.98-3.93,3.94-3.89-1.49,1.66-2.9,3.37-4.48,4.97-.78.79-1.58,1.57-2.35,2.37Z"/>
        <path class="cls-19" d="M19.22,32.81c-.17.18-.33.35-.5.52-.39.4-.89.77-1.27,1.19.32-.2.66-.38.99-.56,1.65-1.25,3.34-2.43,4.73-3.97.7-.78,1.31-1.68,1.44-2.55.12-.84-.16-1.44-.6-1.99-.85-1.04-2.5-1.28-4.22-.76-.85.26-1.9.86-2.65,1.44-.41.32-.86.69-1.27,1.1-.43.4-.84.84-1.14,1.27-.05.08.1.07.14.04.43-.29.82-.63,1.26-.91.37-.24.75-.47,1.14-.67-.25.16-.51.31-.75.49-.41.31-.79.64-1.17.98-.72.65-1.5,1.39-2.03,2.16-.06.09.11.07.16.04.36-.21.72-.59,1.05-.85.35-.27.77-.58,1.19-.84-.43.33-.85.67-1.24,1.05-.54.52-1.06,1.09-1.55,1.64-.51.57-.97,1.17-1.46,1.75-.27.33-.73.77-.83,1.15-.02.07.11.05.15.02.36-.19.75-.64,1.06-.9.61-.52,1.26-.99,1.91-1.44.06-.04.12-.08.17-.12-.07.08-.15.15-.22.23-.72.76-1.37,1.61-2.03,2.4-.77.93-1.51,1.87-2.24,2.81-.35.46-.71.92-1.05,1.39-.19.26-.48.58-.56.85-.02.08.12.05.17.03.25-.14.45-.32.67-.52.32-.3.68-.56,1.02-.83.78-.61,1.58-1.18,2.33-1.83.29-.25.58-.51.86-.77-.21.23-.43.46-.65.69-.3.32-.77.68-.95,1.05-.02.04.01.06.04.06.26,0,.6-.36.81-.53.39-.32.79-.63,1.2-.92-.64.61-1.28,1.24-1.9,1.88.32-.21.64-.41.96-.6.4-.33.8-.67,1.2-.98.37-.28.73-.56,1.1-.83-.27.26-.55.52-.82.78-.32.31-.71.62-1,.97.77-.53,1.54-1.08,2.31-1.61.59-.43,1.19-.84,1.79-1.26.75-.52,1.4-1.06,2.1-1.66.04-.03.08-.07.12-.1Z"/>
        <path class="cls-11" d="M22.9,29.57c.82-.86,1.16-1.78,1.13-2.68,0-.23-.06-.44-.15-.63.03.03.06.06.09.08.01,0,.06,0,.05-.02-.15-.19-.18-.38-.38-.54-.25-.21-.53-.38-.81-.55-.19-.12-.39-.2-.61-.26-.2-.07-.42-.12-.64-.15-.97.08-1.99.32-2.9.82-.33.23-.65.47-.94.74.61-.34,1.42-.53,2.09-.56-.54.14-1.11.39-1.61.65-.04.02-.09.05-.13.07-.73.46-1.37,1.12-1.89,1.81.49-.32.97-.62,1.5-.88.62-.31,1.46-.69,2.11-.79-.17.08-.34.13-.5.22-.3.15-.6.32-.9.49-.71.42-1.33.97-1.91,1.55-.03.03-.06.06-.08.08-.84.99-1.61,2-2.24,3.07.02,0,.04-.02.06-.03.4-.35.76-.71,1.2-1.02.38-.27.85-.53,1.19-.83.08-.07.25-.16.29-.2-.19.19-.44.36-.64.53-.42.36-.83.76-1.21,1.16-.7.74-1.35,1.55-1.92,2.35-.15.2-.98,1.16-.88,1.37.01.03.05.04.09.03.32-.06.78-.43,1.07-.62.76-.5,1.53-.98,2.3-1.47.48-.3.94-.62,1.4-.95-.02.02-.05.05-.07.07-.27.26-.51.55-.75.82-.26.29-.57.57-.8.88-.02.03-.02.05,0,.06.24-.1.47-.21.7-.33.3-.2.6-.44.86-.63.7-.49,1.4-.96,2.08-1.48.53-.41,1.03-.85,1.52-1.31-.32.47-.64.93-.95,1.4.21-.1.42-.19.63-.29.26-.16.52-.33.77-.49.63-.48,1.23-1,1.77-1.56Z"/>
        <g>
          <g>
            <g>
              <path class="cls-13" d="M27.73,26.24l-1.1-1.1s-2.53.49-4.76,2.82c0,0,.36.87,1.27,1.76.89.91,1.76,1.27,1.76,1.27,2.34-2.23,2.82-4.76,2.82-4.76Z"/>
              <g>
                <path class="cls-24" d="M27.19,27.8c.42-.92.54-1.56.54-1.56l-1.1-1.1s-.65.13-1.59.56c.38.55,1.05,1.34,2.15,2.1Z"/>
                <path class="cls-1" d="M22.31,27.53c-.06.06-.13.12-.19.18.18.33.54.92,1.21,1.59.46.46,1.06.96,1.84,1.43.06-.06.12-.12.18-.19-1.96-1.18-2.79-2.53-3.04-3.01Z"/>
                <path class="cls-1" d="M22.94,26.99c-.07.05-.14.11-.2.17.18.33.55.9,1.19,1.55.45.45,1.04.94,1.8,1.41.05-.07.11-.13.16-.2-1.84-1.12-2.67-2.4-2.95-2.92Z"/>
                <path class="cls-1" d="M26.68,28.76c.04-.07.09-.15.13-.22-1.39-.91-2.15-1.88-2.51-2.46-.07.04-.15.08-.22.13.21.34.54.8,1.05,1.3.4.4.92.83,1.56,1.25Z"/>
                <path class="cls-1" d="M23.6,26.51c-.07.05-.14.1-.21.15.2.34.55.87,1.14,1.45.43.43.99.9,1.71,1.35.05-.07.1-.14.14-.21-1.64-1.03-2.45-2.18-2.78-2.74Z"/>
                <path class="cls-1" d="M27.08,28.03c.04-.08.08-.16.11-.23-1.1-.76-1.77-1.55-2.15-2.1-.08.03-.16.07-.24.11.21.31.51.69.92,1.1.36.36.81.74,1.36,1.12Z"/>
              </g>
              <path class="cls-6" d="M27.73,26.24l-1.1-1.1s-2.53.49-4.76,2.82c0,0,.03.06.08.17.5-.56,1.17-.97,1.78-1.39.4-.28,1.37-.94,1.84-.39.52.6-1.92,2.8-2.44,3.36l.02.02c.89.91,1.76,1.27,1.76,1.27,2.34-2.23,2.82-4.76,2.82-4.76Z"/>
              <path class="cls-6" d="M27.73,26.24l-.56-.56c-.63,1.79-1.82,3.42-3.1,4.83.49.34.84.49.84.49,2.34-2.23,2.82-4.76,2.82-4.76Z"/>
            </g>
            <g>
              <path class="cls-13" d="M23.95,22.47l-1.1-1.1s-2.53.49-4.76,2.82c0,0,.36.87,1.27,1.76.89.91,1.76,1.27,1.76,1.27,2.34-2.23,2.82-4.76,2.82-4.76Z"/>
              <g>
                <path class="cls-4" d="M23.41,24.02c.42-.92.54-1.56.54-1.56l-1.1-1.1s-.65.13-1.59.55c.38.55,1.05,1.34,2.15,2.1Z"/>
                <path class="cls-1" d="M18.54,23.76c-.06.06-.13.12-.19.18.18.33.54.92,1.21,1.59.46.46,1.06.96,1.84,1.43.06-.06.12-.12.18-.19-1.96-1.18-2.79-2.53-3.04-3.01Z"/>
                <path class="cls-1" d="M19.17,23.22c-.07.05-.13.11-.2.16.18.33.55.91,1.19,1.55.45.45,1.04.94,1.8,1.41.05-.07.11-.13.16-.2-1.84-1.12-2.67-2.4-2.95-2.92Z"/>
                <path class="cls-1" d="M22.91,24.99c.04-.07.09-.15.13-.22-1.39-.91-2.15-1.88-2.51-2.46-.07.04-.15.08-.22.13.21.34.54.8,1.05,1.3.4.4.92.83,1.56,1.25Z"/>
                <path class="cls-1" d="M19.83,22.73c-.07.05-.14.1-.21.15.2.34.55.87,1.14,1.45.43.43.99.9,1.71,1.35.05-.07.1-.14.14-.21-1.64-1.03-2.45-2.18-2.78-2.74Z"/>
                <path class="cls-1" d="M23.3,24.26c.04-.08.08-.16.11-.23-1.09-.76-1.77-1.55-2.15-2.1-.08.04-.15.07-.24.11.21.31.51.69.92,1.1.36.36.81.74,1.35,1.11Z"/>
              </g>
              <path class="cls-6" d="M23.95,22.47l-1.1-1.1s-2.53.49-4.76,2.82c0,0,.03.06.08.17.5-.56,1.17-.97,1.78-1.4.4-.28,1.37-.93,1.84-.39.52.6-1.92,2.8-2.44,3.36l.02.02c.89.91,1.76,1.27,1.76,1.27,2.34-2.23,2.82-4.76,2.82-4.76Z"/>
              <path class="cls-6" d="M23.95,22.47l-.56-.56c-.63,1.79-1.82,3.42-3.1,4.83.49.34.84.49.84.49,2.34-2.23,2.82-4.76,2.82-4.76Z"/>
            </g>
          </g>
          <g>
            <path class="cls-2" d="M25.99,13.54s-2.26-1.19-4.23.53c-1.97,1.72-4.89,9.98-3.93,9.43.96-.55,5.09-4.32,5.09-4.32l3.07-5.65Z"/>
            <path class="cls-3" d="M24.91,13.75c.07.02.1.13.02.17-1.99.99-3.44,2.91-4.68,4.7-1.05,1.52-1.93,3.16-2.51,4.92.03,0,.05,0,.09-.02.96-.55,5.09-4.32,5.09-4.32l3.07-5.65s-2.26-1.19-4.23.53c-.1.09-.21.2-.32.32,1-.7,2.24-1,3.46-.65Z"/>
            <path class="cls-8" d="M19.54,19.06c.39-.75.79-1.52,1.11-2.3.26-.62.38-1.28.58-1.92h0c-1.21,1.81-2.52,5.06-3.06,6.97.42-.94.91-1.84,1.38-2.75Z"/>
            <path class="cls-23" d="M35.52,23.07s1.18,2.26-.53,4.23c-1.72,1.97-9.98,4.89-9.43,3.93.55-.96,4.32-5.09,4.32-5.09l5.65-3.07Z"/>
            <path class="cls-3" d="M25.57,31.38c.06-.04.11-.08.17-.12.48-.35.94-.73,1.39-1.1.81-.66,1.63-1.31,2.48-1.92,1.69-1.21,3.46-2.49,5.4-3.27.05-.02.11.02.11.07.2.97-.05,1.83-.49,2.61.14-.12.26-.23.35-.34,1.72-1.97.53-4.23.53-4.23l-5.65,3.07s-3.77,4.13-4.32,5.09c-.04.07-.03.12.02.15Z"/>
            <path class="cls-20" d="M41.89,17.5c2.34-2.51,3.11-3.69,3.27-3.95,1.85-2.43,3.78-11.62,3.8-12.27.02-.51-.24-.81-.36-.92-.11-.12-.4-.38-.92-.36-.65.02-9.85,1.95-12.27,3.8-.27.16-1.45.92-3.95,3.26-2.87,2.68-9.28,10.4-10.19,14.21,0,0,.88,1.54,2.93,3.49,1.94,2.05,3.49,2.93,3.49,2.93,3.81-.91,11.53-7.32,14.2-10.19Z"/>
            <path class="cls-23" d="M31.48,18.73c-.04-.16-.1-.32-.18-.46l-.55-.55c-.11-.08-.24-.15-.36-.2-.43-.08-1.4.03-3,1.75-1.76,1.89-6.2,8.21-5.79,8.12-.08.41,6.3-3.97,8.12-5.79,1.51-1.5,1.77-2.41,1.76-2.87Z"/>
            <path class="cls-2" d="M30.48,18.42c0-.1-.02-.19-.06-.26l-.28-.28c-.06-.04-.13-.07-.2-.08-.25,0-.86.17-2.02,1.39-1.28,1.34-4.67,5.68-4.41,5.59-.09.26,4.27-3.1,5.59-4.41,1.08-1.08,1.34-1.66,1.39-1.94Z"/>
            <path class="cls-7" d="M26.82,20.99c.93-1,1.8-2.11,2.83-3.01-.34.17-.83.53-1.51,1.24-.62.65-1.74,2.01-2.7,3.22.46-.49.92-.97,1.37-1.46Z"/>
            <g>
              <path class="cls-16" d="M48.6.36c-.11-.12-.4-.38-.92-.36-.64.02-9.37,1.85-12.07,3.66,1.01,1.86,2.42,3.75,4.18,5.51s3.65,3.17,5.51,4.18c1.8-2.7,3.63-11.43,3.66-12.07.02-.51-.24-.81-.36-.92Z"/>
              <path class="cls-21" d="M48.6.36c-.11-.12-.4-.38-.92-.36-.64.02-9.37,1.85-12.07,3.66,1.01,1.86,2.42,3.75,4.18,5.51s3.65,3.17,5.51,4.18c1.8-2.7,3.63-11.43,3.66-12.07.02-.51-.24-.81-.36-.92Z"/>
            </g>
            <g>
              <path class="cls-7" d="M35.72,4.81c-.12.12-.31.12-.43,0s-.12-.31,0-.43.31-.12.43,0,.12.31,0,.43Z"/>
              <path class="cls-7" d="M39.52,9.88c-.12.12-.31.12-.43,0s-.12-.31,0-.43.31-.12.43,0,.12.31,0,.43Z"/>
              <path class="cls-7" d="M44.66,13.62c-.12.12-.31.12-.43,0s-.12-.31,0-.43.31-.12.43,0,.12.31,0,.43Z"/>
              <path class="cls-7" d="M41.88,11.96c-.12.12-.31.12-.43,0s-.12-.31,0-.43.31-.12.43,0,.12.31,0,.43Z"/>
              <path class="cls-7" d="M37.44,7.52c-.12.12-.31.12-.43,0s-.12-.31,0-.43.31-.12.43,0,.12.31,0,.43Z"/>
            </g>
            <path class="cls-12" d="M37.73,15.99c-1.21,1.21-3.17,1.21-4.38,0s-1.21-3.17,0-4.38,3.17-1.21,4.38,0,1.21,3.17,0,4.38Z"/>
            <path class="cls-9" d="M37.33,15.72c-1.02,1.02-2.68,1.02-3.71,0s-1.02-2.68,0-3.71,2.69-1.02,3.71,0,1.02,2.69,0,3.71Z"/>
            <path class="cls-14" d="M37.2,15.48c-.92.92-2.41.92-3.33,0s-.92-2.41,0-3.33,2.41-.92,3.33,0,.92,2.41,0,3.33Z"/>
            <g class="cls-10">
              <path class="cls-18" d="M34.12,12.89c-.07-.11-.15-.22-.22-.33-.37.49-.51,1.1-.4,1.67.03-.49.24-.96.61-1.34h0Z"/>
              <path class="cls-15" d="M37.07,12.35c-.79-.79-2.04-.82-2.87-.11.09.12.18.25.27.37.82-.53,1.92-.43,2.63.28.31.31.5.7.58,1.1.04-.59-.16-1.2-.61-1.65Z"/>
            </g>
            <path class="cls-8" d="M34.43,27.43s-3.73,2.8-7.92,3.67c0,0,4.42-1.6,7.92-3.67Z"/>
            <path class="cls-9" d="M37.19,6.81c-.09-.11-.17-.22-.25-.33-.26-.37-.48-.76-.73-1.13-1.36.94-2.63,2.02-3.8,3.23-3.8,3.9-6.75,8.48-9.89,12.9.2.27.45.59.76.96,3.18-3.83,6.17-7.83,9.56-11.47,1.37-1.48,2.81-2.87,4.35-4.15Z"/>
            <path class="cls-5" d="M41.89,17.5c2.34-2.51,3.11-3.69,3.27-3.95,1.85-2.43,3.78-11.62,3.8-12.27.02-.51-.24-.81-.36-.92l-.03-.03c-.56,1.35-1.2,2.67-1.9,3.96-4.88,8.95-12.37,16.2-20.33,22.45.82.65,1.34.95,1.34.95,3.81-.91,11.53-7.32,14.2-10.19Z"/>
            <path class="cls-25" d="M37.42,5.87c.11.16.23.31.36.46.55-.44,1.12-.86,1.7-1.27,1.92-1.35,3.93-2.57,5.93-3.8-2.19.68-4.36,1.43-6.41,2.45-.75.37-1.46.78-2.16,1.22.18.32.36.65.58.95Z"/>
          </g>
        </g>
      </g>
    </g>
  </g>
</svg>