<?xml version="1.0" encoding="UTF-8"?>
<svg xmlns="http://www.w3.org/2000/svg" version="1.1" xmlns:xlink="http://www.w3.org/1999/xlink" viewBox="0 0 186.1 187">
  <!-- Generator: Adobe Illustrator 29.3.1, SVG Export Plug-In . SVG Version: 2.1.0 Build 151)  -->
  <defs>
    <style>
      .st0 {
        fill: url(#linear-gradient2);
      }

      .st1 {
        fill: url(#linear-gradient19);
      }

      .st1, .st2, .st3, .st4, .st5, .st6, .st7, .st8, .st9, .st10 {
        mix-blend-mode: multiply;
      }

      .st1, .st3, .st4, .st11, .st12, .st5, .st6, .st7, .st8, .st10 {
        isolation: isolate;
      }

      .st13 {
        fill: none;
        stroke: url(#linear-gradient17);
        stroke-miterlimit: 10;
        stroke-width: .2px;
      }

      .st14 {
        fill: #f6b44b;
      }

      .st15 {
        fill: url(#linear-gradient10);
      }

      .st16 {
        opacity: .4;
      }

      .st2 {
        opacity: .6;
      }

      .st17 {
        fill: url(#linear-gradient21);
      }

      .st18 {
        fill: #89d6f7;
      }

      .st19, .st20 {
        fill: #fff;
      }

      .st21 {
        fill: url(#linear-gradient26);
      }

      .st22 {
        fill: url(#linear-gradient1);
      }

      .st23 {
        fill: url(#linear-gradient9);
      }

      .st3 {
        fill: url(#linear-gradient18);
      }

      .st24 {
        fill: url(#linear-gradient23);
      }

      .st25 {
        fill: url(#linear-gradient8);
      }

      .st26 {
        fill: url(#linear-gradient11);
      }

      .st27 {
        fill: url(#linear-gradient16);
      }

      .st28 {
        fill: url(#linear-gradient24);
      }

      .st4 {
        fill: url(#linear-gradient27);
      }

      .st29 {
        fill: url(#linear-gradient30);
      }

      .st11 {
        fill: url(#linear-gradient7);
      }

      .st11, .st30 {
        mix-blend-mode: overlay;
      }

      .st5 {
        fill: url(#linear-gradient22);
      }

      .st6 {
        fill: url(#radial-gradient);
      }

      .st31 {
        fill: url(#linear-gradient29);
      }

      .st32 {
        fill: url(#linear-gradient12);
      }

      .st7 {
        fill: url(#linear-gradient14);
      }

      .st33 {
        fill: url(#linear-gradient28);
      }

      .st34 {
        fill: url(#linear-gradient20);
      }

      .st35 {
        fill: url(#linear-gradient4);
      }

      .st36 {
        fill: url(#linear-gradient31);
      }

      .st8 {
        fill: url(#radial-gradient1);
      }

      .st37 {
        fill: #f2705b;
      }

      .st38 {
        fill: url(#linear-gradient5);
      }

      .st39 {
        fill: url(#linear-gradient3);
      }

      .st40 {
        fill: url(#linear-gradient25);
      }

      .st41 {
        fill: #41596b;
      }

      .st42 {
        fill: #f55736;
      }

      .st43 {
        fill: #334a5e;
      }

      .st44 {
        fill: url(#linear-gradient6);
      }

      .st10 {
        fill: url(#linear-gradient15);
      }

      .st20 {
        opacity: .7;
      }

      .st45 {
        fill: url(#linear-gradient13);
      }

      .st46 {
        fill: #ffd15c;
      }

      .st47 {
        fill: url(#linear-gradient);
      }
    </style>
    <linearGradient id="linear-gradient" x1="-370.2" y1="1754.3" x2="-316.2" y2="1754.3" gradientTransform="translate(-890.5 1583) rotate(44.6) scale(1 -1)" gradientUnits="userSpaceOnUse">
      <stop offset="0" stop-color="#7323a5"/>
      <stop offset="1" stop-color="#d536f5"/>
    </linearGradient>
    <linearGradient id="linear-gradient1" x1="36.5" y1="80.7" x2="140.8" y2="80.7" gradientTransform="translate(23.8 195.4) rotate(-11.7) scale(1 -1)" gradientUnits="userSpaceOnUse">
      <stop offset="0" stop-color="#7323a5"/>
      <stop offset="1" stop-color="#d536f5"/>
    </linearGradient>
    <linearGradient id="linear-gradient2" x1="-343.2" y1="1697" x2="-343.2" y2="1812.3" gradientTransform="translate(-890.5 1583) rotate(44.6) scale(1 -1)" gradientUnits="userSpaceOnUse">
      <stop offset="0" stop-color="#f55736" stop-opacity="0"/>
      <stop offset="0" stop-color="#f55737" stop-opacity="0"/>
      <stop offset="0" stop-color="#f56142" stop-opacity=".2"/>
      <stop offset="0" stop-color="#f66a4c" stop-opacity=".4"/>
      <stop offset=".1" stop-color="#f67256" stop-opacity=".5"/>
      <stop offset=".2" stop-color="#f6785e" stop-opacity=".6"/>
      <stop offset=".2" stop-color="#f77e65" stop-opacity=".8"/>
      <stop offset=".3" stop-color="#f7836a" stop-opacity=".9"/>
      <stop offset=".4" stop-color="#f7866e" stop-opacity=".9"/>
      <stop offset=".5" stop-color="#f78971" stop-opacity="1"/>
      <stop offset=".6" stop-color="#f78a73" stop-opacity="1"/>
      <stop offset="1" stop-color="#f88b74"/>
    </linearGradient>
    <linearGradient id="linear-gradient3" x1="-382.4" y1="1794" x2="-304" y2="1794" gradientTransform="translate(-890.5 1583) rotate(44.6) scale(1 -1)" gradientUnits="userSpaceOnUse">
      <stop offset="0" stop-color="#feb5f4"/>
      <stop offset="0" stop-color="#fab2f4"/>
      <stop offset=".2" stop-color="#e0a3f5"/>
      <stop offset=".4" stop-color="#d19af6"/>
      <stop offset=".5" stop-color="#cc97f7"/>
      <stop offset=".7" stop-color="#da9ff6"/>
      <stop offset="1" stop-color="#feb5f4"/>
    </linearGradient>
    <linearGradient id="linear-gradient4" x1="-382.4" y1="1794" x2="-343.2" y2="1794" gradientTransform="translate(-890.5 1583) rotate(44.6) scale(1 -1)" gradientUnits="userSpaceOnUse">
      <stop offset="0" stop-color="#feb5f4"/>
      <stop offset="0" stop-color="#fab2f4"/>
      <stop offset=".2" stop-color="#e0a3f5"/>
      <stop offset=".4" stop-color="#d19af6"/>
      <stop offset=".5" stop-color="#cc97f7"/>
      <stop offset=".7" stop-color="#da9ff6"/>
      <stop offset="1" stop-color="#feb5f4"/>
    </linearGradient>
    <linearGradient id="linear-gradient5" x1="-360.1" y1="1711.1" x2="-360.1" y2="2032.6" gradientTransform="translate(-890.5 1583) rotate(44.6) scale(1 -1)" gradientUnits="userSpaceOnUse">
      <stop offset="0" stop-color="#f7f3e7" stop-opacity="0"/>
      <stop offset=".2" stop-color="#f8eedb" stop-opacity=".2"/>
      <stop offset=".5" stop-color="#fae7cb" stop-opacity=".6"/>
      <stop offset=".7" stop-color="#fce3bf" stop-opacity=".8"/>
      <stop offset=".9" stop-color="#fde0b7" stop-opacity=".9"/>
      <stop offset="1" stop-color="#fedfb5"/>
    </linearGradient>
    <linearGradient id="linear-gradient6" x1="-356.9" y1="1722.1" x2="-356.9" y2="2018.4" gradientTransform="translate(-890.5 1583) rotate(44.6) scale(1 -1)" gradientUnits="userSpaceOnUse">
      <stop offset="0" stop-color="#f7f3e7" stop-opacity="0"/>
      <stop offset=".2" stop-color="#f8eedb" stop-opacity=".2"/>
      <stop offset=".5" stop-color="#fae7cb" stop-opacity=".6"/>
      <stop offset=".7" stop-color="#fce3bf" stop-opacity=".8"/>
      <stop offset=".9" stop-color="#fde0b7" stop-opacity=".9"/>
      <stop offset="1" stop-color="#fedfb5"/>
    </linearGradient>
    <linearGradient id="linear-gradient7" x1="-327" y1="1576.2" x2="-327" y2="1873" gradientTransform="translate(-890.5 1583) rotate(44.6) scale(1 -1)" gradientUnits="userSpaceOnUse">
      <stop offset="0" stop-color="#f7f3e7" stop-opacity="0"/>
      <stop offset=".2" stop-color="#f8eedb" stop-opacity=".2"/>
      <stop offset=".5" stop-color="#fae7cb" stop-opacity=".6"/>
      <stop offset=".7" stop-color="#fce3bf" stop-opacity=".8"/>
      <stop offset=".9" stop-color="#fde0b7" stop-opacity=".9"/>
      <stop offset="1" stop-color="#fedfb5"/>
    </linearGradient>
    <linearGradient id="linear-gradient8" x1="-343.2" y1="1709.6" x2="-343.2" y2="1810.8" gradientTransform="translate(-890.5 1583) rotate(44.6) scale(1 -1)" gradientUnits="userSpaceOnUse">
      <stop offset="0" stop-color="#f8ce9f"/>
      <stop offset=".1" stop-color="#f7d3aa" stop-opacity=".8"/>
      <stop offset=".3" stop-color="#f7ddbc" stop-opacity=".6"/>
      <stop offset=".5" stop-color="#f7e4cb" stop-opacity=".4"/>
      <stop offset=".6" stop-color="#f7ebd7" stop-opacity=".2"/>
      <stop offset=".8" stop-color="#f7efe0" stop-opacity=".1"/>
      <stop offset=".9" stop-color="#f7f2e5" stop-opacity="0"/>
      <stop offset="1" stop-color="#f7f3e7" stop-opacity="0"/>
    </linearGradient>
    <linearGradient id="linear-gradient9" x1="-343.2" y1="1851.7" x2="-343.2" y2="1878.5" gradientTransform="translate(-890.5 1583) rotate(44.6) scale(1 -1)" gradientUnits="userSpaceOnUse">
      <stop offset="0" stop-color="#7323a5"/>
      <stop offset="1" stop-color="#d536f5"/>
    </linearGradient>
    <linearGradient id="linear-gradient10" x1="-343.2" y1="1854" x2="-343.2" y2="1877.6" gradientTransform="translate(-890.5 1583) rotate(44.6) scale(1 -1)" gradientUnits="userSpaceOnUse">
      <stop offset="0" stop-color="#f55736" stop-opacity="0"/>
      <stop offset="1" stop-color="#f88b74"/>
    </linearGradient>
    <linearGradient id="linear-gradient11" x1="-330.7" y1="1854" x2="-330.7" y2="1877.6" gradientTransform="translate(-890.5 1583) rotate(44.6) scale(1 -1)" gradientUnits="userSpaceOnUse">
      <stop offset="0" stop-color="#f55736" stop-opacity="0"/>
      <stop offset="1" stop-color="#f88b74"/>
    </linearGradient>
    <linearGradient id="linear-gradient12" x1="-358.9" y1="1854" x2="-358.9" y2="1877.6" gradientTransform="translate(-890.5 1583) rotate(44.6) scale(1 -1)" gradientUnits="userSpaceOnUse">
      <stop offset="0" stop-color="#f55736" stop-opacity="0"/>
      <stop offset="1" stop-color="#f88b74"/>
    </linearGradient>
    <linearGradient id="linear-gradient13" x1="-345.5" y1="1854" x2="-345.5" y2="1877.6" gradientTransform="translate(-890.5 1583) rotate(44.6) scale(1 -1)" gradientUnits="userSpaceOnUse">
      <stop offset="0" stop-color="#f55736" stop-opacity="0"/>
      <stop offset="1" stop-color="#f88b74"/>
    </linearGradient>
    <linearGradient id="linear-gradient14" x1="-343.2" y1="1762.8" x2="-343.2" y2="1823.3" gradientTransform="translate(-890.5 1583) rotate(44.6) scale(1 -1)" gradientUnits="userSpaceOnUse">
      <stop offset="0" stop-color="#f7f3e7" stop-opacity="0"/>
      <stop offset="0" stop-color="#f7f2e5" stop-opacity="0"/>
      <stop offset="0" stop-color="#f8eedc" stop-opacity=".2"/>
      <stop offset="0" stop-color="#f9ebd3" stop-opacity=".4"/>
      <stop offset="0" stop-color="#fae8cc" stop-opacity=".5"/>
      <stop offset="0" stop-color="#fbe5c6" stop-opacity=".7"/>
      <stop offset=".1" stop-color="#fce3c0" stop-opacity=".8"/>
      <stop offset=".1" stop-color="#fce1bc" stop-opacity=".9"/>
      <stop offset=".2" stop-color="#fde0b9" stop-opacity=".9"/>
      <stop offset=".2" stop-color="#fddfb6" stop-opacity="1"/>
      <stop offset=".3" stop-color="#fddfb5" stop-opacity="1"/>
      <stop offset=".4" stop-color="#fedfb5"/>
    </linearGradient>
    <linearGradient id="linear-gradient15" x1="-343.2" y1="1767.8" x2="-343.2" y2="1831.7" gradientTransform="translate(-890.5 1583) rotate(44.6) scale(1 -1)" gradientUnits="userSpaceOnUse">
      <stop offset="0" stop-color="#f7c597"/>
      <stop offset="1" stop-color="#f7c597"/>
    </linearGradient>
    <linearGradient id="linear-gradient16" x1="-343.2" y1="1768.5" x2="-343.2" y2="1831" gradientTransform="translate(-890.5 1583) rotate(44.6) scale(1 -1)" gradientUnits="userSpaceOnUse">
      <stop offset="0" stop-color="#7323a5"/>
      <stop offset="1" stop-color="#d536f5"/>
    </linearGradient>
    <radialGradient id="radial-gradient" cx="-343.2" cy="1799.8" fx="-343.2" fy="1799.8" r="27.2" gradientTransform="translate(-890.5 1583) rotate(44.6) scale(1 -1)" gradientUnits="userSpaceOnUse">
      <stop offset=".9" stop-color="#455e88"/>
      <stop offset=".9" stop-color="#455e88" stop-opacity="1"/>
      <stop offset=".9" stop-color="#465f89" stop-opacity=".9"/>
      <stop offset="1" stop-color="#49618a" stop-opacity=".9"/>
      <stop offset="1" stop-color="#4d658d" stop-opacity=".7"/>
      <stop offset="1" stop-color="#526990" stop-opacity=".6"/>
      <stop offset="1" stop-color="#586e94" stop-opacity=".4"/>
      <stop offset="1" stop-color="#5f7498" stop-opacity=".1"/>
      <stop offset="1" stop-color="#63789b" stop-opacity="0"/>
    </radialGradient>
    <linearGradient id="linear-gradient17" x1="-343.2" y1="1769.4" x2="-343.2" y2="1830.1" gradientTransform="translate(-890.5 1583) rotate(44.6) scale(1 -1)" gradientUnits="userSpaceOnUse">
      <stop offset="0" stop-color="#586568"/>
      <stop offset="1" stop-color="#a9afb0"/>
    </linearGradient>
    <linearGradient id="linear-gradient18" x1="-343.2" y1="1773.3" x2="-343.2" y2="1801.6" gradientTransform="translate(-890.5 1583) rotate(44.6) scale(1 -1)" gradientUnits="userSpaceOnUse">
      <stop offset="0" stop-color="#aa9d61"/>
      <stop offset=".6" stop-color="#d3be5e" stop-opacity="0"/>
    </linearGradient>
    <radialGradient id="radial-gradient1" cx="-343.8" cy="1800.2" fx="-343.8" fy="1800.2" r="26.4" gradientTransform="translate(-890.5 1583) rotate(44.6) scale(1 -1)" gradientUnits="userSpaceOnUse">
      <stop offset=".6" stop-color="#d3c074" stop-opacity="0"/>
      <stop offset="1" stop-color="#aa9b61"/>
    </radialGradient>
    <linearGradient id="linear-gradient19" x1="-343.5" y1="1711.5" x2="-343.5" y2="1760.3" gradientTransform="translate(-890.5 1583) rotate(44.6) scale(1 -1)" gradientUnits="userSpaceOnUse">
      <stop offset="0" stop-color="#f7f3e7" stop-opacity="0"/>
      <stop offset="0" stop-color="#f7f2e5" stop-opacity="0"/>
      <stop offset="0" stop-color="#f7ebd8" stop-opacity=".2"/>
      <stop offset="0" stop-color="#f7e5cc" stop-opacity=".4"/>
      <stop offset=".1" stop-color="#f7dfc1" stop-opacity=".5"/>
      <stop offset=".2" stop-color="#f7dab8" stop-opacity=".6"/>
      <stop offset=".2" stop-color="#f7d6b0" stop-opacity=".8"/>
      <stop offset=".3" stop-color="#f7d3a9" stop-opacity=".9"/>
      <stop offset=".4" stop-color="#f7d1a4" stop-opacity=".9"/>
      <stop offset=".5" stop-color="#f7cfa1" stop-opacity="1"/>
      <stop offset=".6" stop-color="#f7ce9f" stop-opacity="1"/>
      <stop offset="1" stop-color="#f8ce9f"/>
    </linearGradient>
    <linearGradient id="linear-gradient20" x1="-350.7" y1="1717.2" x2="-336.4" y2="1717.2" gradientTransform="translate(-890.5 1583) rotate(44.6) scale(1 -1)" gradientUnits="userSpaceOnUse">
      <stop offset="0" stop-color="#7323a5"/>
      <stop offset="1" stop-color="#d536f5"/>
    </linearGradient>
    <linearGradient id="linear-gradient21" x1="-343.9" y1="1683.3" x2="-343.9" y2="1756" gradientTransform="translate(-890.5 1583) rotate(44.6) scale(1 -1)" gradientUnits="userSpaceOnUse">
      <stop offset="0" stop-color="#f55736" stop-opacity="0"/>
      <stop offset="1" stop-color="#f88b74"/>
    </linearGradient>
    <linearGradient id="linear-gradient22" x1="-383.7" y1="1707" x2="-359.2" y2="1749.3" gradientTransform="translate(-890.5 1583) rotate(44.6) scale(1 -1)" gradientUnits="userSpaceOnUse">
      <stop offset="0" stop-color="#f7f3e7" stop-opacity="0"/>
      <stop offset=".2" stop-color="#f7e9d4" stop-opacity=".2"/>
      <stop offset=".6" stop-color="#f7dab8" stop-opacity=".6"/>
      <stop offset=".9" stop-color="#f7d1a6" stop-opacity=".9"/>
      <stop offset="1" stop-color="#f8ce9f"/>
    </linearGradient>
    <linearGradient id="linear-gradient23" x1="-411.8" y1="1721.3" x2="-363.1" y2="1721.3" gradientTransform="translate(-890.5 1583) rotate(44.6) scale(1 -1)" gradientUnits="userSpaceOnUse">
      <stop offset="0" stop-color="#7323a5"/>
      <stop offset="1" stop-color="#d536f5"/>
    </linearGradient>
    <linearGradient id="linear-gradient24" x1="-399.6" y1="1694.2" x2="-399.6" y2="1747.3" gradientTransform="translate(-890.5 1583) rotate(44.6) scale(1 -1)" gradientUnits="userSpaceOnUse">
      <stop offset="0" stop-color="#f55736" stop-opacity="0"/>
      <stop offset=".2" stop-color="#f55736" stop-opacity="0"/>
      <stop offset=".3" stop-color="#f55939" stop-opacity="0"/>
      <stop offset=".4" stop-color="#f55d3d" stop-opacity=".1"/>
      <stop offset=".5" stop-color="#f56243" stop-opacity=".2"/>
      <stop offset=".6" stop-color="#f6694b" stop-opacity=".3"/>
      <stop offset=".8" stop-color="#f67155" stop-opacity=".5"/>
      <stop offset=".8" stop-color="#f77a60" stop-opacity=".7"/>
      <stop offset=".9" stop-color="#f7856d" stop-opacity=".9"/>
      <stop offset="1" stop-color="#f88b74"/>
    </linearGradient>
    <linearGradient id="linear-gradient25" x1="-387.6" y1="1656.6" x2="-387.6" y2="1755.6" gradientTransform="translate(-890.5 1583) rotate(44.6) scale(1 -1)" gradientUnits="userSpaceOnUse">
      <stop offset="0" stop-color="#a52e23"/>
      <stop offset=".1" stop-color="#a72f23" stop-opacity="1"/>
      <stop offset=".3" stop-color="#af3325" stop-opacity=".9"/>
      <stop offset=".5" stop-color="#bc3a28" stop-opacity=".7"/>
      <stop offset=".7" stop-color="#ce432c" stop-opacity=".5"/>
      <stop offset=".9" stop-color="#e54f32" stop-opacity=".2"/>
      <stop offset="1" stop-color="#f55736" stop-opacity="0"/>
    </linearGradient>
    <linearGradient id="linear-gradient26" x1="-383.3" y1="1718.5" x2="-383.3" y2="1750.5" gradientTransform="translate(-890.5 1583) rotate(44.6) scale(1 -1)" gradientUnits="userSpaceOnUse">
      <stop offset="0" stop-color="#f55736" stop-opacity="0"/>
      <stop offset=".2" stop-color="#f55736" stop-opacity="0"/>
      <stop offset=".3" stop-color="#f55939" stop-opacity="0"/>
      <stop offset=".4" stop-color="#f55d3d" stop-opacity=".1"/>
      <stop offset=".5" stop-color="#f56243" stop-opacity=".2"/>
      <stop offset=".6" stop-color="#f6694b" stop-opacity=".3"/>
      <stop offset=".8" stop-color="#f67155" stop-opacity=".5"/>
      <stop offset=".8" stop-color="#f77a60" stop-opacity=".7"/>
      <stop offset=".9" stop-color="#f7856d" stop-opacity=".9"/>
      <stop offset="1" stop-color="#f88b74"/>
    </linearGradient>
    <linearGradient id="linear-gradient27" x1="-2603.7" y1="1502.4" x2="-2579.2" y2="1544.8" gradientTransform="translate(-2878.3 -264.3) rotate(-142)" gradientUnits="userSpaceOnUse">
      <stop offset="0" stop-color="#f7f3e7" stop-opacity="0"/>
      <stop offset=".2" stop-color="#f7e9d4" stop-opacity=".2"/>
      <stop offset=".6" stop-color="#f7dab8" stop-opacity=".6"/>
      <stop offset=".9" stop-color="#f7d1a6" stop-opacity=".9"/>
      <stop offset="1" stop-color="#f8ce9f"/>
    </linearGradient>
    <linearGradient id="linear-gradient28" x1="-2631.7" y1="1516.8" x2="-2583" y2="1516.8" gradientTransform="translate(-2878.3 -264.3) rotate(-142)" gradientUnits="userSpaceOnUse">
      <stop offset="0" stop-color="#7323a5"/>
      <stop offset="1" stop-color="#d536f5"/>
    </linearGradient>
    <linearGradient id="linear-gradient29" x1="-2619.6" y1="1489.6" x2="-2619.6" y2="1542.7" gradientTransform="translate(-2878.3 -264.3) rotate(-142)" gradientUnits="userSpaceOnUse">
      <stop offset="0" stop-color="#f55736" stop-opacity="0"/>
      <stop offset=".2" stop-color="#f55736" stop-opacity="0"/>
      <stop offset=".3" stop-color="#f55939" stop-opacity="0"/>
      <stop offset=".4" stop-color="#f55d3d" stop-opacity=".1"/>
      <stop offset=".5" stop-color="#f56243" stop-opacity=".2"/>
      <stop offset=".6" stop-color="#f6694b" stop-opacity=".3"/>
      <stop offset=".8" stop-color="#f67155" stop-opacity=".5"/>
      <stop offset=".8" stop-color="#f77a60" stop-opacity=".7"/>
      <stop offset=".9" stop-color="#f7856d" stop-opacity=".9"/>
      <stop offset="1" stop-color="#f88b74"/>
    </linearGradient>
    <linearGradient id="linear-gradient30" x1="-2607.6" y1="1452" x2="-2607.6" y2="1551" gradientTransform="translate(-2878.3 -264.3) rotate(-142)" gradientUnits="userSpaceOnUse">
      <stop offset="0" stop-color="#a52e23"/>
      <stop offset=".1" stop-color="#a72f23" stop-opacity="1"/>
      <stop offset=".3" stop-color="#af3325" stop-opacity=".9"/>
      <stop offset=".5" stop-color="#bc3a28" stop-opacity=".7"/>
      <stop offset=".7" stop-color="#ce432c" stop-opacity=".5"/>
      <stop offset=".9" stop-color="#e54f32" stop-opacity=".2"/>
      <stop offset="1" stop-color="#f55736" stop-opacity="0"/>
    </linearGradient>
    <linearGradient id="linear-gradient31" x1="-2603.3" y1="1513.9" x2="-2603.3" y2="1545.9" gradientTransform="translate(-2878.3 -264.3) rotate(-142)" gradientUnits="userSpaceOnUse">
      <stop offset="0" stop-color="#f55736" stop-opacity="0"/>
      <stop offset=".2" stop-color="#f55736" stop-opacity="0"/>
      <stop offset=".3" stop-color="#f55939" stop-opacity="0"/>
      <stop offset=".4" stop-color="#f55d3d" stop-opacity=".1"/>
      <stop offset=".5" stop-color="#f56243" stop-opacity=".2"/>
      <stop offset=".6" stop-color="#f6694b" stop-opacity=".3"/>
      <stop offset=".8" stop-color="#f67155" stop-opacity=".5"/>
      <stop offset=".8" stop-color="#f77a60" stop-opacity=".7"/>
      <stop offset=".9" stop-color="#f7856d" stop-opacity=".9"/>
      <stop offset="1" stop-color="#f88b74"/>
    </linearGradient>
  </defs>
  <g class="st12">
    <g id="Layer_1">
      <g id="OBJECTS">
        <g id="fire">
          <g>
            <animateTransform accumulate="none" additive="replace" attributeName="transform" begin="0s" calcMode="linear" dur="0.3s" fill="remove" repeatCount="indefinite" restart="always" type="scale" values="1;.95;1"/>
            <path class="st14" d="M54.9,161.6s2.6-2.2,2.6-7.2c0,0-11.4,10.1-19.7,10.8,0,0-.6-2.4,1.7-7.4,0,0-8.5,1.4-12.4,2.8,1.6-3.7,3.4-11.9,3.4-11.9-5.2,2.1-7.7,1.4-7.7,1.4,1.1-8.1,11.8-18.8,11.8-18.8-5-.2-7.4,2.3-7.4,2.3-2.3-14.4,19.1-12.6,19.1-12.6l21.6,21.2s1.5,22.3-13.1,19.5h0Z"/>
          </g>
          <g>
            <animateTransform xmlns="http://www.w3.org/2000/svg" accumulate="none" additive="replace" attributeName="transform" begin="0s" calcMode="linear" dur="0.1s" fill="remove" from="1" repeatCount="indefinite" restart="always" to=".75" type="scale"/>
            <path class="st46" d="M46.3,120.8c-3.1.1-10.4.3-13.4,3.7-.9,1-1.4,2.1-1.7,3.4,1.4-.4,3.1-.8,5.2-.7l5.3.2-3.7,3.7c-2.4,2.4-8.3,9.1-10.4,14.8,1-.2,2.2-.5,3.7-1.1l4.1-1.6-.9,4.3c0,.2-.9,4.3-2,8,3.8-.9,8-1.6,8.2-1.6l4.4-.7-1.8,4c-.7,1.4-1.1,2.6-1.3,3.5,5.8-1.9,12.9-7.3,15.5-9.6l4-3.5v5.2c0,2.1-.3,3.7-.8,5,1.3-.2,2.5-.7,3.5-1.5,3.8-3,3.4-11.8,3.6-14.3l-21.5-21.3h0Z"/>
          </g>
        </g>
        <g>
          <g>
            <path class="st47" d="M137,51.3l-1.2-1.2s-49.2-17.8-89.3,70.4h0c-.8,1.9,2.8,7.5,8.4,13,5.6,5.5,11.3,9,13.2,8.2h0c87.5-41.5,69-90.4,69-90.4h0Z"/>
            <path class="st22" d="M46.4,120.4h0c-.2.6,0,1.3.2,1.9.2.6.5,1.2.8,1.8.6,1.2,1.4,2.2,2.2,3.3,1.6,2.1,3.4,4,5.3,5.9,1.9,1.8,3.9,3.5,6.1,5.1,1.1.8,2.2,1.5,3.3,2.1.6.3,1.2.6,1.8.7.6.2,1.3.3,1.7.1h.2c0,0,.2,0,.2,0h-.4c0,0,6.9-3.5,6.9-3.5,2.3-1.1,4.5-2.5,6.8-3.7,2.3-1.2,4.4-2.6,6.6-3.9,2.2-1.3,4.3-2.7,6.5-4.1,2.2-1.4,4.2-2.9,6.3-4.4l1.6-1.1,1.5-1.2,3-2.4c1-.8,1.9-1.7,2.9-2.5,1-.9,2-1.6,2.9-2.5,1.8-1.8,3.7-3.5,5.4-5.4,1.8-1.8,3.4-3.8,5.1-5.8,1.5-2,3.1-4,4.5-6.2l1.1-1.6,1-1.6c.6-1.1,1.3-2.2,1.9-3.3,1.2-2.2,2.2-4.6,3.2-7,.4-1.2.9-2.4,1.2-3.6l.6-1.8.5-1.9c.6-2.5,1-5,1.2-7.5.3-2.5.3-5.1,0-7.7-.2-2.6-.6-5.1-1.4-7.5.8,2.4,1.3,5,1.6,7.5.3,2.6.3,5.1.1,7.7,0,1.3-.2,2.6-.4,3.8-.2,1.3-.4,2.6-.7,3.8l-.4,1.9-.5,1.9c-.3,1.3-.8,2.5-1.2,3.7-.9,2.4-1.9,4.8-3.1,7.1-.5,1.2-1.2,2.3-1.8,3.4l-1,1.7-1.1,1.6c-1.4,2.2-3,4.2-4.5,6.3-1.7,2-3.3,4-5.1,5.8-1.7,1.9-3.6,3.7-5.5,5.5-.9.9-1.9,1.7-2.9,2.6-1,.8-1.9,1.7-2.9,2.5l-3,2.4-1.5,1.2-1.6,1.1c-2.1,1.5-4.2,3-6.3,4.4-2.2,1.4-4.3,2.8-6.5,4.1-2.2,1.3-4.4,2.7-6.7,3.8-2.3,1.2-4.5,2.5-6.8,3.6l-6.9,3.4h-.2c0,.1-.2,0-.2,0h.4c-.8.3-1.5.1-2.2,0-.7-.2-1.3-.5-1.9-.8-1.2-.6-2.3-1.4-3.4-2.2-2.2-1.6-4.1-3.4-6-5.3-1.9-1.9-3.6-3.9-5.2-6s-1.5-2.2-2.1-3.4c-.3-.6-.6-1.2-.8-1.8-.2-.6-.4-1.3-.1-2h0Z"/>
            <path class="st0" d="M53.5,117.1c.2-.1.5,0,.5.2,1.4,5.2,6.8,9.4,10.9,12.6,3.5,2.7,7.7,5.7,12,7.4,77.3-40.5,60-86,60-86l-1.2-1.2s-49.2-17.8-89.3,70.4h0c-.4,1,.4,3,2.1,5.5.5-3.6,1.7-7.1,5-8.9Z"/>
          </g>
          <path class="st39" d="M183.7,4.4l-1.8-1.8S110.3-23.2,52,105h0c-1.1,2.8,4.1,10.9,12.3,19,8.2,8,16.4,13.1,19.2,12h0C210.7,75.5,183.7,4.4,183.7,4.4Z"/>
          <path class="st35" d="M181.9,2.6S110.3-23.2,52,105h0c-1.1,2.8,4.1,10.9,12.3,19L182.8,3.5l-.9-.9h0Z"/>
          <g>
            <g class="st30">
              <path class="st38" d="M56.1,107.1h0C112.8-17.9,182.7,7.5,182.7,7.5l-1.5-1.5S111.3-19.4,54.6,105.6h0c-1.1,2.7,4,10.7,12,18.5.2.2.4.4.6.5-7.4-7.5-12.1-15-11.1-17.6h0Z"/>
            </g>
            <g class="st30">
              <path class="st44" d="M61.9,102.9c-.1.3-.1.6-.1,1,.6,0,1.3,0,1.9-.2C117.1-13.6,182.8,10.3,182.8,10.3l-1.4-1.4S115.4-15.1,61.9,102.9h0Z"/>
            </g>
            <path class="st11" d="M179.1,7.5l-1.7-1.7s-.4-.2-1.3-.4c2.7,9.5,15.2,69.9-94.2,121.7h0c-2.4,1-9.2-3-16.2-9.6.5.6,1.1,1.1,1.7,1.7,7.6,7.5,15.3,12.3,17.9,11.2h0C204.4,74.1,179.1,7.5,179.1,7.5Z"/>
          </g>
          <g class="st9">
            <path class="st25" d="M101.4,117.6h0c-2.8,1.2-11-3.9-19.1-12-8.2-8-13.4-16.2-12.3-19h0c12.2-26.9,25-47,37.7-62-18.1,15.5-37.5,40.4-55.7,80.3h0c-1.1,2.8,4.1,10.9,12.3,19,8.2,8,16.4,13.1,19.2,12h0c39.6-18.7,64.2-38.5,79.4-56.9-14.8,12.8-34.7,26-61.4,38.6h0Z"/>
          </g>
          <path class="st23" d="M183.2,41.6c6.2-22.1.5-37.2.5-37.2l-1.8-1.8s-15.1-5.5-37.1,1.1c7.3,3.1,15.2,8.4,22.5,15.6,7.3,7.2,12.8,15,16,22.3h0Z"/>
          <path class="st15" d="M182.5,37.6c5.4-19.4.4-32.7.4-32.7l-1.6-1.6s-13.3-4.8-32.6.9c6.4,2.7,13.3,7.4,19.8,13.7,6.4,6.3,11.2,13.2,14,19.5Z"/>
          <g>
            <path class="st26" d="M177.7,29c2,2.9,3.6,5.8,4.8,8.6,5.1-18.3,1-31.2.5-32.5,0,8.2-2,16.4-5.3,23.9h0Z"/>
            <path class="st32" d="M167,3.7c2.1-.9,4.2-1.5,6.5-1.8-5.8-.6-14.4-.6-24.8,2.5,2.8,1.2,5.7,2.7,8.6,4.7,3.1-2,6.3-3.9,9.6-5.3h0Z"/>
            <path class="st45" d="M175.7,12.8c1.3-1.9,2.7-3.8,3.8-5.8.5-1.1,1-2.2,1.6-3.2-6.5,2.1-12.5,5.4-17.8,9.6,1.7,1.4,3.5,3,5.2,4.7s1.1,1.1,1.6,1.7c2-2.2,3.8-4.5,5.6-6.9Z"/>
          </g>
          <path class="st7" d="M101.3,43.2c11.7-11.9,30.9-12.1,42.8-.3,11.9,11.7,12.1,30.9.3,42.8-11.7,11.9-30.9,12.1-42.8.3-11.9-11.7-12.1-30.9-.3-42.8Z"/>
          <path class="st10" d="M104.8,37.2c12.4-12.6,32.6-12.7,45.2-.4s12.7,32.6.4,45.2c-12.4,12.6-32.6,12.7-45.2.4-12.6-12.4-12.7-32.6-.4-45.2Z"/>
          <path class="st27" d="M105.3,37.7c12.1-12.3,31.9-12.4,44.2-.3,12.3,12.1,12.4,31.9.3,44.2-12.1,12.3-31.9,12.4-44.2.3-12.3-12.1-12.4-31.9-.3-44.2Z"/>
          <path class="st6" d="M108.1,40.6c10.5-10.7,27.8-10.8,38.5-.3,10.7,10.5,10.8,27.8.3,38.5-10.5,10.7-27.8,10.8-38.5.3-10.7-10.5-10.8-27.8-.3-38.5Z"/>
          <path class="st13" d="M106,38.4c11.7-11.9,30.9-12.1,42.8-.3,11.9,11.7,12.1,30.9.3,42.8-11.7,11.9-30.9,12.1-42.8.3-11.9-11.7-12.1-30.9-.3-42.8Z"/>
          <g class="st2">
            <path class="st3" d="M111.6,75.8c-9.9-9.8-10.5-25.5-1.6-36-.5.4-.9.8-1.4,1.3-10.2,10.4-10.1,27.1.3,37.4,10.4,10.2,27.1,10.1,37.4-.3.4-.5.9-.9,1.3-1.4-10.3,9.1-26.1,8.8-36-1h0Z"/>
          </g>
          <path class="st8" d="M108.6,40.4c10.2-10.4,27-10.5,37.4-.3,10.4,10.2,10.5,27,.3,37.4-10.2,10.4-27,10.5-37.4.3-10.4-10.2-10.5-27-.3-37.4Z"/>
          <path class="st1" d="M99.5,87.4s-2.4-6.7-41.5,26.3c0,0,6.1,8.9,16.2,16,0,0,28.9-36.2,25.3-42.3h0Z"/>
          <g>
            <path class="st34" d="M74.4,123.2c-16.7,16.9-32.5,28.4-35.3,25.7-2.8-2.8,8.4-18.8,25.1-35.7,16.7-16.9,32.5-28.4,35.3-25.7,2.8,2.8-8.4,18.8-25.1,35.7Z"/>
            <path class="st17" d="M74.4,119.7c-14.1,14.3-27,24.3-29,22.4-1.9-1.9,7.9-15,22-29.3,14.1-14.3,27-24.3,29-22.4s-7.9,15-22,29.3Z"/>
          </g>
          <g>
            <path class="st5" d="M75.7,69.8s10.6,1.2-22.1,40.6c0,0-2.7-3.3-1.6-5.7,0,0,11.9-30.2,20-36.7,0,0,3.6,1.7,3.6,1.7Z"/>
            <g>
              <path class="st24" d="M74.9,70.6c.2-1.1-1.1-1.8-2.2-2.2l-33.1-12.8c-1.6-.6-3.5,0-4.5,1.5L1.6,89.7c-.6.9-.7,2.1-.4,3.1.2.6.5,1.1.9,1.5.3.3.8.6,1.2.8l5.6,2.2c1.4.5,2.9.2,4-.8l25.4-3.2,13.7,10.1c.8.6,1.9.9,2.9.7,0,0,16.2-10.7,19.9-33.6Z"/>
              <path class="st42" d="M72.7,68.3c-6.3-2.4-12.7-4.7-19-7.1l-9.5-3.6-4.7-1.8c-.8-.3-1.5-.3-2.3,0-.7.2-1.4.8-1.8,1.4h0s0,0,0,0l-8.4,8.2-8.4,8.2-8.5,8.1c-2.8,2.7-5.7,5.4-8.5,8,2.8-2.8,5.5-5.6,8.2-8.3l8.3-8.3,8.4-8.2,8.4-8.2h0c.5-.7,1.3-1.3,2.1-1.6.9-.3,1.9-.3,2.7,0l4.7,1.8,9.4,3.7c6.3,2.5,12.6,5,18.8,7.5Z"/>
              <path class="st28" d="M58.7,65.5l-19-7.4c-1.5-.6-3.2,0-4.1,1.4l-30.5,27.8,53.5-21.8Z"/>
              <g class="st9">
                <path class="st40" d="M74.9,70.6c.3-1-1.1-1.8-2.2-2.2l-1.3-.5c-3.9,24.3-17.8,31.4-17.8,31.4-1,.2-2.1,0-2.9-.7l-13.7-10.1-25.4,3.2c-1,1-2.6,1.3-4,.8l-5.6-2.2c-.2,0-.4-.2-.6-.3-.5.9-.6,2-.3,2.9.2.6.5,1.1.9,1.5.3.3.8.6,1.2.8l5.6,2.2c1.4.5,2.9.2,4-.8l25.4-3.2,13.7,10.1c.8.6,1.9.9,2.9.7,0,0,13.7-10.9,19.9-33.6h0Z"/>
              </g>
              <polygon class="st21" points="61.3 67 67.3 69.4 42.6 90.1 39.1 86.6 61.3 67"/>
            </g>
          </g>
          <g>
            <path class="st4" d="M120.3,109s-2.6-10.3-37.4,27.1c0,0,3.6,2.2,5.9.8,0,0,28.4-15.7,33.7-24.6l-2.2-3.3h0Z"/>
            <g>
              <path class="st33" d="M119.7,109.8c1-.3,2,.9,2.5,1.8l17,31.2c.8,1.6.5,3.5-.9,4.6l-28.1,37.5c-.8.7-2,1-3,.8-.6-.1-1.1-.4-1.6-.7-.4-.3-.7-.7-1-1.1l-2.9-5.3c-.7-1.3-.6-2.9.3-4v-25.6c-.1,0-12-12.3-12-12.3-.7-.7-1.1-1.8-1-2.8,0,0,8.5-17.5,30.7-24.1h0Z"/>
              <path class="st42" d="M122.2,111.7c3.3,5.9,6.7,11.8,9.9,17.7l4.9,8.9,2.5,4.5c.4.8.6,1.8.4,2.7-.2.9-.7,1.7-1.4,2.3h0c0,0-7,9.4-7,9.4l-7.1,9.4-7.1,9.3c-2.4,3.1-4.8,6.2-7.2,9.3,2.3-3.2,4.5-6.4,6.9-9.5l6.9-9.4,7-9.4,7-9.4h0s0,0,0,0c.6-.5,1-1.2,1.2-1.9.1-.8,0-1.5-.3-2.3l-2.4-4.4-4.8-8.9c-3.2-6-6.4-12-9.5-17.9h0Z"/>
              <path class="st31" d="M126.9,125.2l9.8,17.9c.8,1.4.4,3.2-.8,4.2l-23.6,33.8,14.7-55.9h0Z"/>
              <g class="st9">
                <path class="st29" d="M119.7,109.8c1-.4,2,.9,2.5,1.8l.7,1.2c-23.6,7-28.8,21.7-28.8,21.7,0,1,.3,2.1,1,2.8l11.8,12.3v25.6c-.8,1.2-.9,2.8-.2,4l2.9,5.3c.1.2.2.4.4.5-.8.6-1.9.9-2.9.7-.6-.1-1.1-.4-1.6-.7-.4-.3-.7-.7-1-1.1l-2.9-5.3c-.7-1.3-.6-2.9.3-4v-25.6c-.1,0-12-12.3-12-12.3-.7-.7-1.1-1.8-1-2.8,0,0,9-15,30.7-24.1h0Z"/>
              </g>
              <polygon class="st36" points="125 122.9 121.9 117.3 104.5 144.4 108.4 147.4 125 122.9"/>
            </g>
          </g>
          <g class="st16">
            <image class="st12" width="148" height="148" transform="translate(65.5 -18.7) rotate(-11.7)" xlink:href="new-rocket-1.png"/>
          </g>
        </g>
      </g>
      <g>
        <g id="fire1" data-name="fire">
          <g>
            <animateTransform accumulate="none" additive="replace" attributeName="transform" begin="0s" calcMode="linear" dur="0.3s" fill="remove" repeatCount="indefinite" restart="always" type="scale" values="1;.95;1"/>
            <path class="st14" d="M-404.9,326.3s11.5-10.4,10.9-32.8c0,0-49.7,46.8-86.5,50.8,0,0-2.9-10.9,6.9-33.9,0,0-37.7,7.1-54.7,13.9,6.9-16.8,14-54.5,14-54.5-22.9,9.9-33.9,6.9-33.9,6.9,4-36.8,50.8-86.5,50.8-86.5-22.4-.5-32.8,10.9-32.8,10.9-11.6-65.2,75.5-65.6,75.5-65.6l115.3,115.3c.1.1-.4,87-65.5,75.5Z"/>
          </g>
          <g>
            <animateTransform accumulate="none" additive="replace" attributeName="transform" begin="0s" calcMode="linear" dur="0.1s" fill="remove" from="1" repeatCount="indefinite" restart="always" to=".75" type="scale"/>
            <path class="st46" d="M-451.4,138.8c-13.8.9-41.2,5.7-54.1,21.2-3.8,4.5-6.1,9.7-7.1,15.6,6.1-2.1,13.7-3.7,23-3.5l23.7.6-16.2,17.3c-10.6,11.2-36.1,42.2-45,68,4.2-.9,9.6-2.5,16.2-5.4l18.2-7.8-3.7,19.5c-.2,1.1-3.7,19.4-8.2,36.5,17-4.5,35.4-7.9,36.5-8.1l19.5-3.7-7.8,18.2c-2.8,6.6-4.5,12-5.4,16.2,25.8-9,56.8-34.5,68-45l17.3-16.2.6,23.7c.2,9.3-1.3,16.9-3.4,23,5.9-1,11-3.3,15.5-7.1,16.8-14,20.4-43.2,21.2-54.2l-108.8-108.8Z"/>
          </g>
        </g>
        <path class="st41" d="M-249.6,45.8C-292.4,3-351.3-13.7-406.7-4.4c-35.6,6-69.7,22.7-97.1,50.2-29.4,29.4-46.4,66.5-51.2,104.8,2.2-2.6,4.6-5.3,7.2-7.8,25.1-25.1,57.2-38.8,90.1-41.2,39.8-3,80.7,10.8,111.2,41.2s44.2,71.3,41.2,111.2c-2.4,32.8-16.1,65-41.2,90.1-2.5,2.5-5.2,4.9-7.8,7.2,38.3-4.8,75.4-21.8,104.8-51.2,27.5-27.5,44.2-61.6,50.2-97.1,9.2-55.5-7.6-114.5-50.3-157.2Z"/>
        <path class="st37" d="M-95.1-156.8c-24.9,0-49.3,2.5-72.8,7.2C-311.6-120.7-424.9-7.9-454.7,135.5l115.5,115.5C-195.9,221.1-83,107.9-54.2-35.8c4.7-23.5,7.2-47.9,7.2-72.8v-48.2h-48.1Z"/>
        <path class="st19" d="M-157.5-46.3c-31.4-31.4-82.3-31.4-113.7,0-15.7,15.7-23.6,36.3-23.5,56.9.1,20.5,7.9,41.1,23.5,56.7,15.6,15.6,36.1,23.5,56.6,23.6,20.7.1,41.3-7.8,57-23.6,31.5-31.3,31.5-82.2.1-113.6Z"/>
        <circle class="st18" cx="-214.3" cy="10.5" r="53.5"/>
        <path class="st43" d="M-54.2-35.9l-113.7-113.7c23.5-4.7,47.8-7.2,72.8-7.2h48.1v48.1c0,24.9-2.5,49.3-7.2,72.8Z"/>
      </g>
      <rect class="st20" x="124.1" y="-89.4" width="548" height="968.1" transform="translate(395.6 -165.9) rotate(45)"/>
    </g>
  </g>
</svg>