<?xml version="1.0" encoding="UTF-8"?>
<svg xmlns="http://www.w3.org/2000/svg" viewBox="0 0 72.2 65.77">
  <defs>
    <style>
      .cls-1 {
        fill: #461642;
      }

      .cls-2 {
        fill: #d27f7c;
      }

      .cls-3 {
        fill: #b06979;
      }

      .cls-4 {
        fill: #d2ccbf;
        mix-blend-mode: soft-light;
        opacity: .2;
      }

      .cls-5 {
        isolation: isolate;
      }

      .cls-6 {
        fill: #5b254e;
      }

      .cls-7 {
        fill: #985965;
      }
    </style>
  </defs>
  <g class="cls-5">
    <g id="Layer_2" data-name="Layer 2">
      <g id="space">
        <g>
          <path class="cls-6" d="M29.17,65.77S3.11,32.76,0,19.31l27.25-9.08,7.44-4.07,2.58,6.05L67.56,0s5.76,10.29,4.45,20l-3.31,17.31s-1.47,11.7-6.58,16.13c0,0-8.1,11.75-32.95,12.33Z"/>
          <path class="cls-7" d="M0,19.31s6.53,12.69,24.65,19.2c0,0,18.94-7.34,32.2-19.94l-2.59-4.89,6.53-.17s4.51-5.93,6.76-13.51c0,0-17.78,3.47-34.7,11.06l1.83-4.89S19.62,8.87,0,19.31Z"/>
          <path class="cls-1" d="M24.65,38.51s.66,18.62,4.52,27.26c0,0-18.83-22.05-29.17-46.46,0,0,14.45,14.28,24.65,19.2Z"/>
          <path class="cls-1" d="M54.27,13.68l4.45,4.77,4.49,25.48s.7-21.68-2.41-30.43l-6.53.17Z"/>
          <path class="cls-4" d="M.57,19.86s14.21,11.42,21.76,13.27c7.56,1.86,21.74-10.8,22.6-12.54.86-1.74-.68-4.07,6.22-9.15,6.89-5.08,6.69-7.29,4.79-7.13-1.89.16-12.99,6.46-19.85,8.09s-4.14-2.97-8.36-2.44S5.35,15.98.57,19.86Z"/>
          <path class="cls-3" d="M4.23,23.29s15.4,10.81,20.21,10.8c4.82-.01,24.61-8.2,32.41-15.51,0,0-12.58,12.84-32.2,19.94,0,0-11.74-6.87-20.42-15.22Z"/>
          <polygon class="cls-2" points="22.07 36.92 24.77 40.82 27.07 37.5 22.07 36.92"/>
          <path class="cls-3" d="M58.75,13.56l3.04,3.7.2-5.79s-2.67,1.07-3.24,2.09Z"/>
        </g>
      </g>
    </g>
  </g>
</svg>